# xmcd
#
# Track frame offsets: 
#        150
#        8238
#        20323
#        33454
#        48556
#        58669
#        77921
#        89084
#        92688
#        105362
#        119568
#        133472
#        146205
#        169475
#        176886
#        190817
#        202300
#        211543
#        227111
#        231952
#        242329
#        251031
#        255934
#        273126
#        286974
#        304643
#        315074
#        342743
#
# Disc length: 4727 seconds
#
# Revision: 0
# Processed by: cddbd v1.5.2PL0 Copyright (c) Steve Scherf et al.
# Submitted via: ExactAudioCopyFreeDBPlugin 1.0
#
DISCID=9912751c
DTITLE=Jim Reeves - Live In Concert-The Best Of
DYEAR=2015
DGENRE=Country
TTITLE0=Billy Bayou
TTITLE1=Anna Marie
TTITLE2=Jim Introduces Band
TTITLE3=Danny Boy
TTITLE4=Bimbo
TTITLE5=Four Walls
TTITLE6=Everywhere You Go
TTITLE7=Mexican Joe (Instrumental)
TTITLE8=Danny Boy
TTITLE9=I Was Just Walking Out The Door
TTITLE10=Streets Of Laredo
TTITLE11=He'll Have To Go
TTITLE12=Medley-Four Walls-I Missed Me...
TTITLE13=Stand At Your Window
TTITLE14=The Blizzard
TTITLE15=Your Old Love Letters
TTITLE16=An Evening Prayer
TTITLE17=I Get The Blues When It Rains
TTITLE18=Am I Losing You
TTITLE19=I'm Getting Better
TTITLE20=What Would You Do
TTITLE21=I Know One
TTITLE22=I Love You Because
TTITLE23=Adios Amigo
TTITLE24=I Can't Stop Loving You
TTITLE25=Mexican Joe
TTITLE26=Lump Lump Boys With Jim
TTITLE27=Interview With Jim Reeves
EXTD=
EXTT0=
EXTT1=
EXTT2=
EXTT3=
EXTT4=
EXTT5=
EXTT6=
EXTT7=
EXTT8=
EXTT9=
EXTT10=
EXTT11=
EXTT12=
EXTT13=
EXTT14=
EXTT15=
EXTT16=
EXTT17=
EXTT18=
EXTT19=
EXTT20=
EXTT21=
EXTT22=
EXTT23=
EXTT24=
EXTT25=
EXTT26=
EXTT27=
PLAYORDER=
